<svg width="16" height="16" xmlns="http://www.w3.org/2000/svg" fill="currentColor" viewBox="0 0 16 16"><path fill-rule="evenodd" clip-rule="evenodd" d="M12.913 7.525c.03.316.03.634 0 .95l.796.46a.6.6 0 01.28.676 6.189 6.189 0 01-1.602 2.77.6.6 0 01-.725.095l-.794-.46a5.901 5.901 0 01-.823.476v.92a.6.6 0 01-.446.58 6.24 6.24 0 01-3.198 0 .633.633 0 01-.446-.58v-.92a5.914 5.914 0 01-.823-.475l-.794.459a.6.6 0 01-.725-.095 6.189 6.189 0 01-1.601-2.77.6.6 0 01.279-.677l.796-.46A5.954 5.954 0 013.064 8c0-.132.01-.344.023-.475l-.796-.46a.6.6 0 01-.28-.676 6.19 6.19 0 011.602-2.77.6.6 0 01.725-.095l.794.459c.215-.154.583-.367.823-.476v-.919a.6.6 0 01.446-.58 6.24 6.24 0 013.198 0 .633.633 0 01.446.58v.92c.24.108.608.321.823.475l.794-.46a.6.6 0 01.725.096 6.19 6.19 0 011.601 2.77.6.6 0 01-.28.676l-.795.46zM11.596 9.1c.19-1.033.19-1.168 0-2.2l1.095-.633a5.986 5.986 0 00-.846-1.463l-1.096.633c-.799-.685-.916-.752-1.904-1.101V3.07A6.053 6.053 0 008 2.999c-.235 0-.614.032-.845.072v1.265c-.988.349-1.105.416-1.904 1.1l-1.096-.632c-.364.437-.65.932-.846 1.463l1.095.632c-.19 1.033-.19 1.169 0 2.201l-1.095.633c.164.443.543 1.099.846 1.463l1.096-.633c.799.685.916.752 1.904 1.1v1.266c.231.04.61.071.845.071s.614-.032.845-.071v-1.265c.988-.35 1.105-.416 1.904-1.101l1.096.633c.303-.364.682-1.02.846-1.463L11.596 9.1zM8 5.6c1.323 0 2.4 1.076 2.4 2.4 0 1.323-1.077 2.4-2.4 2.4A2.403 2.403 0 015.6 8c0-1.324 1.077-2.4 2.4-2.4zm0 3.6a1.201 1.201 0 000-2.4 1.201 1.201 0 000 2.4z"/></svg>